<svg xmlns="http://www.w3.org/2000/svg" width="200" height="200" viewBox="0 0 200 200">
<!-- SVG created with Arrow, by QuiverAI (https://quiver.ai) -->
  <path d="m166.8 123.2-39.15-4.29c6.51-9.82 9.51-21.02 10.03-33.52-9.38 0.95-19.65 4.46-20.95 13.58-0.52 3.81-0.72 7.41-3.62 11.44-3.03 4.31-4.24 6.87-4.95 11.75-0.94 5.47-4.76 8.55-9.25 8.44-4.49 0.11-8.31-2.26-9.07-8.44-0.71-5.5-2.62-8.61-4.69-11.48-2.41-3.16-2.64-5.94-2.9-10.56-0.71-8.85-8.58-12.21-20.4-13.78 0.39 11.6 3.02 22.31 10.56 32.57l-38.21 3.9c0.35 6.99-3.75 11.71-10.95 13.33v39.54h2.44c6.23 0 9.38 2.99 9.21 7.78l43.98 6.61c9.03 1.42 17.12 3.98 20.83 7.93 3.71-3.55 10.67-5.93 20.83-7.62l45.17-6.55c-0.41-4.9 3.16-8.02 10.47-8.02v-39.61c-6.28-1.29-9.9-6.24-9.38-13z" fill="#4C1C06"/>
  <path d="m180.4 44.32c-1.12-0.95-1.84-0.48-1.07 1.29 3.47 7.95-0.1 14.88-9.18 21.11-4.27 3.04-11.12 4.57-14.72 4.9-2.19 0.21-2.06-1.37-1.32-3.32 3.05-7.33 8.02-14.45 15.17-20.98 8.92-8.35 11.99-16.34 9.66-34.62-0.54-2.67-2.45-2.62-2.13-0.37 2 12.49-2.03 22.01-12.48 30.74-1.09 0.89-1.52 0.11-1.33-1.42 2.2-13.38-0.26-26.77-4.76-38.63-0.71-1.61-1.68-1.01-1.08 1.29 2.87 10.75 2.35 22.88-0.52 34.15-0.53 1.98-1.37 1.12-2.13-0.29-3.91-5.4-7.91-9.5-13.43-12.44-1.65-0.91-2.41 0.4-1.07 2.07 8.75 10.11 12.77 16.12 10.72 27.86-2.23 9.15-8.76 17.18-16.59 20.04-1.49 0.54-1.9 0.07-0.81-3.29 2.1-6.23 1.23-11.78-0.33-20.84-0.42-1.46-1.44-1.03-1.36 0.49 0.05 10.86-5.41 23.83-16.63 29.96-4.95 2.41-6.88 7.43-15.32 7.43-6.85 0-10.06-4.36-12.55-5.94-9.33-3.77-16.87-13.38-18.34-25.31-0.27-2.17-0.07-3.49-0.16-6.05-0.06-1.48-1.27-1.61-1.57-0.09-1.91 8.26-1.97 14.66 0.77 21.78 0.89 2.82 0.19 2.65-1.73 1.86-8.22-3.15-15.47-12.29-17.88-20.28-2.01-10.71 3.6-18.44 9.98-27.45 1.49-2.24 1.3-3.61-0.52-2.49-5.7 3.36-10.39 8.51-13.53 13.66-0.82 1.34-1.94 1.3-2.46-0.85-3.02-10.58-1.94-21.64 0.66-34.61 0.37-2.07-1.43-1.98-1.83-0.17-3.89 12.45-4.8 24.37-3.02 34.78 0.42 2.32-1.25 3.89-2.77 2.45-9.9-7.48-12.1-15.01-11.62-27.35 0.08-1.91-1.44-1.57-2.01 0.41-4.58 12.38-1.05 23.01 7.87 31.45 7.58 7.07 13.24 13.34 17.32 23.36 1.34 3.31 1.43 3.6-1.55 3.12-13.16-2.26-23.84-7.29-26.25-16.18-0.97-3.81-0.13-7.18 1.51-9.69 1.22-2.02 0.05-2.93-1.18-1.54-4.05 3.96-5.03 9.41-3.22 14.72 3.63 9.74 12.02 15.24 24.37 19.73 2.82 1.06 3.19 1.96 1.46 2.44-3.57 1.06-4.09 6.51-1.59 9.02 2.28 2.42 7.37 2.08 9.78-0.57 0.76-0.85 0-1.1-0.93-0.72-2.41 1.04-3.6-1.52-2.16-3.04 1.61-1.77 3.8-2.44 9.54-2.39 12.22 0.09 27.63 4.21 28.6 16.21 0.31 3.99 0.43 6.2 2.66 9.29 2.69 3.85 4.5 7.98 5.07 12.81 0.53 4.73 3.35 6.21 6.53 6.09 3.19 0.12 6.29-2.2 7-6.77 0.71-5.67 2.89-9.47 5.81-13.5 2.1-2.82 2.18-6.37 3.17-10.83 2.82-10.3 14.82-12.55 23.16-13.17 7-0.38 10.76-0.77 13.95 1.32 2 1.23 1.79 3.7-0.8 3.95-1.12 0.12-2.15-0.93-2.42 0.07 0.93 1.85 4.03 2.85 7.22 2.73 4.27-0.17 4.98-4.54 3.63-7.05-0.94-1.9-1.83-2.24-2.92-3.04-0.88-0.72-0.36-1.29 2.09-2.52 5.6-2.38 10.1-3.82 17.05-11.48 4.95-5.31 7.5-9.55 8.47-13.64 0.38-3.81-0.97-7.26-3.95-9.66z" fill="#EDBC18"/>
  <path d="m99.26 73.76c-5.38 3.03-9.88 4.84-14.25 5.85 2.77 0.76 4.51 2.45 6.11 4.02 2.68 2.25 5.83 3.05 8.51 3.05 3.67 0 6.72-1.57 9.59-4.26 1.6-1.52 3.41-2.43 5.32-3.06-5.46-1.15-10.52-2.96-15.28-5.6z" fill="#4C1C06"/>
  <path d="m69.03 162.8-0.22-1.2h-9.2l-0.22 1.2 0.22 0.3c0.68-0.18 1.6-0.25 2.57-0.25h1.33v6.03c0 0.51-0.09 0.9-0.29 1.19h3.11c-0.2-0.29-0.29-0.68-0.29-1.19v-6.03h1.33c0.97 0 1.89 0.07 2.57 0.25l0.22-0.3h-1.13z" fill="#EDBC18"/>
  <path d="m74.81 166h-1.38v-2.71h2.05c1.29 0 1.88 0.4 1.88 1.3 0 0.98-0.79 1.41-2.55 1.41zm2.36 1.29c1.64-0.39 2.58-1.47 2.58-2.99 0-1.76-1.27-2.69-3.53-2.69h-5.6c0.2 0.29 0.3 0.68 0.3 1.2v6.08c0 0.51-0.1 0.9-0.3 1.19h3.1c-0.2-0.29-0.29-0.68-0.29-1.19v-1.4h1.38l2.08 2.59h3.18l-2.9-2.79z" fill="#EDBC18"/>
  <path d="m87.31 161.6c0.2 0.29 0.3 0.68 0.3 1.2v3.36c0 1.74-0.73 2.4-2.18 2.4-1.44 0-2.08-0.71-2.08-2.4v-3.36c0-0.52 0.1-0.91 0.3-1.2h-2.94c0.2 0.29 0.29 0.68 0.29 1.2v3.39c0 2.89 1.39 4.04 4.33 4.04s4.52-1.2 4.52-4.04v-3.39c0-0.52 0.1-0.91 0.29-1.2h-2.83z" fill="#EDBC18"/>
  <path d="m96.6 168.5c-1.97 0-3.09-1.18-3.09-2.84 0-1.72 1.2-2.87 2.95-2.87 1.2 0 2.22 0.44 3.03 1.22l0.82-1.93c-1.27-0.66-2.56-0.83-3.85-0.83-3.24 0-5.38 1.84-5.38 4.63 0 2.65 1.94 4.32 5.13 4.32 1.4 0 2.57-0.36 3.69-0.96l0.21-2.22c-1.29 1.03-2.26 1.48-3.51 1.48z" fill="#EDBC18"/>
  <path d="m106.3 165.7 4.38-4.07h-3.24l-3.23 3.7h-0.06v-2.5c0-0.52 0.09-0.91 0.29-1.2h-2.94c0.2 0.29 0.29 0.68 0.29 1.2v6.08c0 0.51-0.09 0.9-0.29 1.19h2.94c-0.2-0.29-0.29-0.68-0.29-1.19v-2.5l3.58 3.69h3.6l-5.03-4.4z" fill="#EDBC18"/>
  <path d="m115.7 161.6h-2.94c0.2 0.29 0.3 0.68 0.3 1.2v6.08c0 0.51-0.1 0.9-0.3 1.19h2.94c-0.19-0.29-0.29-0.68-0.29-1.19v-6.08c0-0.52 0.1-0.91 0.29-1.2z" fill="#EDBC18"/>
  <path d="m126.1 161.6c0.2 0.29 0.3 0.68 0.3 1.2v4.86l-5.66-6.06h-2.36c0.2 0.29 0.3 0.68 0.3 1.2v6.08c0 0.51-0.1 0.9-0.3 1.19h2.65c-0.2-0.29-0.29-0.68-0.29-1.19v-4.4l5.36 5.59h2.43v-7.27c0-0.52 0.1-0.91 0.3-1.2h-2.73z" fill="#EDBC18"/>
  <path d="m135.8 165.5-0.36 1.15 0.2 0.27c0.42-0.1 0.93-0.17 1.42-0.2v1.69c-0.59 0.15-1.09 0.22-1.63 0.22-2.05 0-3.26-1.15-3.26-2.87 0-1.79 1.29-2.94 3.29-2.94 1.29 0 2.31 0.44 3.25 1.2l0.71-1.91c-1.26-0.71-2.55-1.01-4.09-1.01-3.38 0-5.59 1.89-5.59 4.71 0 2.65 2.02 4.42 5.4 4.42 1.29 0 2.72-0.27 4.06-0.74v-3.99h-3.4z" fill="#EDBC18"/>
  <path d="m41.03 166.9 14.48 0.72v-1.42l-14.48 0.7z" fill="#EDBC18"/>
  <path d="m143.2 166.2v1.42l14.48-0.72-14.48-0.7z" fill="#EDBC18"/>
  <path d="m50.12 137c0.44 0.65 0.62 1.54 0.62 2.7v8.26c0 3.19-1.37 4.59-4.13 4.59-1.49 0-2.83-0.49-4.44-1.4l-0.45 2.79 0.09 0.43c2.07 1.08 4.37 1.53 6.83 1.53 5.65 0 6.87-2.99 6.87-7.05v-9.15c0-1.16 0.2-2.05 0.65-2.7h-6.04z" fill="#EDBC18"/>
  <path d="m67.78 137c0.38 0.65 0.58 1.54 0.58 2.7v12.85c0 1.15-0.2 2.04-0.58 2.7h5.44c-0.38-0.66-0.57-1.55-0.57-2.7v-4.37h6.26l1.05-3.3-0.29-0.3c-1.16 0.22-2.4 0.3-3.59 0.3h-3.43v-4.37h5.26c1.52 0 2.71 0.13 3.86 0.5l0.52-3.66-0.25-0.35h-14.26z" fill="#EDBC18"/>
  <path d="m95.99 137c0.38 0.65 0.58 1.54 0.58 2.7v8.08c0 3.37-1.44 4.67-4.26 4.67-2.79 0-3.98-1.4-3.98-4.67v-8.08c0-1.16 0.2-2.05 0.58-2.7h-5.19c0.38 0.65 0.58 1.54 0.58 2.7v8.16c0 5.74 2.62 7.94 8.28 7.94 5.65 0 8.08-2.35 8.08-7.94v-8.16c0-1.16 0.2-2.05 0.58-2.7h-5.25z" fill="#EDBC18"/>
  <path d="m111.1 151.7h-3.19v-11.51h3.48c4.31 0 5.59 2.77 5.59 5.88 0 3.65-1.77 5.63-5.88 5.63zm0.78-14.68h-9.01c0.38 0.65 0.58 1.54 0.58 2.7v12.85c0 1.15-0.2 2.04-0.58 2.7h8.75c6.29 0 9.61-3.81 9.61-9.35 0-5.34-3.4-8.9-9.35-8.9z" fill="#EDBC18"/>
  <path d="m133.9 145.6-0.66 2.26 0.39 0.49c0.88-0.22 1.95-0.37 3.02-0.47v3.52c-1.17 0.34-2.19 0.49-3.36 0.49-3.96 0-6.24-2.39-6.24-5.81 0-3.63 2.62-6.03 6.48-6.03 2.52 0 4.45 0.96 6.35 2.55l1.44-3.76c-2.32-1.39-4.67-2.06-7.52-2.06-6.9 0-10.79 3.76-10.79 9.59 0 5.64 3.99 9.2 10.74 9.2 2.45 0 5.22-0.54 7.58-1.43v-8.54h-7.43z" fill="#EDBC18"/>
  <path d="m156.9 151.3c-1.09 0.34-2.43 0.51-4.19 0.51h-3.74v-4.42h5.66l0.96-2.99-0.29-0.29c-1.07 0.19-2.19 0.27-3.36 0.27h-2.97v-4.08h4.45c1.39 0 2.46 0.12 3.43 0.46l0.12-3.46-0.27-0.3h-12.39c0.38 0.65 0.58 1.54 0.58 2.7v12.85c0 1.15-0.2 2.04-0.58 2.7h13.13l-0.08-3.66-0.46-0.29z" fill="#EDBC18"/>
</svg>